<?xml version="1.0" encoding="utf-8"?>
<!-- Generator: Adobe Illustrator 28.0.0, SVG Export Plug-In . SVG Version: 6.00 Build 0)  -->
<svg version="1.1" id="Camada_1" xmlns="http://www.w3.org/2000/svg" xmlns:xlink="http://www.w3.org/1999/xlink" x="0px" y="0px"
	 viewBox="0 0 272.4 63.9" style="enable-background:new 0 0 272.4 63.9;" xml:space="preserve">
<style type="text/css">
	.st0{fill:#3C3C3B;}
	.st1{clip-path:url(#SVGID_00000085940280600075771140000010372647901954185890_);}
	.st2{fill:#5B64AC;}
	.st3{fill:#EE7526;}
	.st4{fill:#F2AD22;}
	.st5{fill:#42B9B6;}
	.st6{clip-path:url(#SVGID_00000067940314298483970310000001642468486605971644_);}
</style>
<g>
	<g>
		<path class="st0" d="M74.4,47.9l-0.7-7.2h12c1.6,0,2.4-0.8,2.4-2.4s-0.8-2.4-2.4-2.4h-2.4c-6.4,0-9.6-3.2-9.6-9.6
			c0-6.4,3.2-9.6,9.6-9.6h10.1l0.7,7.2H83.3c-1.6,0-2.4,0.8-2.4,2.4c0,1.6,0.8,2.4,2.4,2.4h2.4c6.4,0,9.6,3.2,9.6,9.6
			c0,6.4-3.2,9.6-9.6,9.6H74.4z"/>
		<path class="st0" d="M105,16.6v31.3h-7.2V16.6H105z"/>
		<path class="st0" d="M129.1,27.5v20.5h-7.2V27.5c0-2.4-1.2-3.6-3.6-3.6c-2.4,0-3.6,1.2-3.6,3.6v20.5h-7.2V27.5
			c0-7.2,3.6-10.8,10.8-10.8c4,0,6.4,1.2,7.2,3.6c0.8-2.4,3.2-3.6,7.2-3.6c7.2,0,10.8,3.6,10.8,10.8v20.5h-7.2V27.5
			c0-2.4-1.2-3.6-3.6-3.6C130.3,23.9,129.1,25.1,129.1,27.5z"/>
		<path class="st0" d="M145.9,47.9V16.6h13.2c6.4,0,9.6,3.2,9.6,9.6c0,3.2-1.5,5.2-4.6,6c3.1,0.8,4.6,2.8,4.6,6
			c0,6.4-3.2,9.6-9.6,9.6H145.9z M159.2,28.7c1.6,0,2.4-0.8,2.4-2.4c0-1.6-0.8-2.4-2.4-2.4h-6v4.8H159.2z M159.2,40.7
			c1.6,0,2.4-0.8,2.4-2.4s-0.8-2.4-2.4-2.4h-6v4.8H159.2z"/>
		<path class="st0" d="M198.9,32.3c0,10.4-4.6,15.7-13.7,15.7c-9.3,0-14-5.2-14-15.7s4.7-15.7,14-15.7
			C194.4,16.6,198.9,21.9,198.9,32.3z M185.2,23.9c-4.5,0-6.7,2.8-6.7,8.4s2.2,8.4,6.7,8.4c4.3,0,6.5-2.8,6.5-8.4
			S189.5,23.9,185.2,23.9z"/>
		<path class="st0" d="M213.4,16.6c7.2,0,10.8,3.6,10.8,10.8c0,4.8-1.4,7.9-4.1,9.2l4.1,11.3h-7.9l-2.9-9.6h-4.8v9.6h-7.2V16.6
			H213.4z M208.6,31.1h4.8c2.4,0,3.6-1.2,3.6-3.6s-1.2-3.6-3.6-3.6h-4.8V31.1z"/>
		<path class="st0" d="M249.5,28.7v19.3h-7.2v-7.2h-8.4v7.2h-7.2V28.7c0-8,3.9-12,11.6-12C245.7,16.6,249.5,20.6,249.5,28.7z
			 M238.2,23.9c-2.9,0-4.3,1.6-4.3,4.8v4.8h8.4v-4.8C242.3,25.5,240.9,23.9,238.2,23.9z"/>
		<path class="st0" d="M255.5,38.3v-2.4c0-4.8,2.4-7.2,7.2-7.2c1.6,0,2.4-0.8,2.4-2.4c0-1.6-0.8-2.4-2.4-2.4h-10.8l0.7-7.2h10.1
			c6.4,0,9.6,3.2,9.6,9.6c0,5.9-2.4,9.2-7.2,9.6c-1.6,0-2.4,0.8-2.4,2.4H255.5z M262.8,40.7v7.2h-7.2v-7.2H262.8z"/>
	</g>
	<g>
		<defs>
			<path id="SVGID_00000023256723399523427520000010735481070459235990_" d="M23.7,4.1L23.7,4.1c-0.3,0.2-0.7,0.4-1,0.5
				c-11.9,7-14.7,23.1-6.4,34.1L35,63.9l18.7-25.1c8.2-11.1,5.4-27.1-6.4-34.1c-0.3-0.2-0.6-0.4-1-0.5l0,0
				C39.2,0.4,30.8,0.4,23.7,4.1z"/>
		</defs>
		<clipPath id="SVGID_00000140711739457253258730000010696369460574902175_">
			<use xlink:href="#SVGID_00000023256723399523427520000010735481070459235990_"  style="overflow:visible;"/>
		</clipPath>
		<g style="clip-path:url(#SVGID_00000140711739457253258730000010696369460574902175_);">
			
				<rect x="5.6" y="0" transform="matrix(-1 -4.489443e-11 4.489443e-11 -1 61.7901 9.2575)" class="st2" width="50.6" height="9.3"/>
			
				<rect x="5.7" y="54.7" transform="matrix(-1 -4.489443e-11 4.489443e-11 -1 61.9871 118.5788)" class="st3" width="50.6" height="9.3"/>
			<polygon class="st4" points="39.6,32 64.3,32 64.3,13.9 30.4,13.9 			"/>
			<polygon class="st5" points="25.3,13.9 0,13.9 0,32 34.6,32 			"/>
			<polygon class="st4" points="48.9,50.2 65,50.2 65,32 39.7,32 			"/>
			<polygon class="st5" points="34.6,32 9.3,32 9.3,50.2 43.9,50.2 			"/>
		</g>
	</g>
</g>
</svg>
