<?xml version="1.0" encoding="utf-8"?>
<!-- Generator: Adobe Illustrator 28.0.0, SVG Export Plug-In . SVG Version: 6.00 Build 0)  -->
<svg version="1.1" id="Camada_1" xmlns="http://www.w3.org/2000/svg" xmlns:xlink="http://www.w3.org/1999/xlink" x="0px" y="0px"
	 viewBox="0 0 201.1 116.4" style="enable-background:new 0 0 201.1 116.4;" xml:space="preserve">
<style type="text/css">
	.st0{fill:#3C3C3B;}
	.st1{clip-path:url(#SVGID_00000022545526346827205810000002495354195271440037_);}
	.st2{fill:#5B64AC;}
	.st3{fill:#EE7526;}
	.st4{fill:#F2AD22;}
	.st5{fill:#42B9B6;}
	.st6{clip-path:url(#SVGID_00000109720246684983655670000005424531944643589793_);}
</style>
<g>
	<g>
		<path class="st0" d="M3.1,106.8l-0.7-7.2h12c1.6,0,2.4-0.8,2.4-2.4s-0.8-2.4-2.4-2.4H12c-6.4,0-9.6-3.2-9.6-9.6
			c0-6.4,3.2-9.6,9.6-9.6h10.1l0.7,7.2H12c-1.6,0-2.4,0.8-2.4,2.4c0,1.6,0.8,2.4,2.4,2.4h2.4c6.4,0,9.6,3.2,9.6,9.6
			c0,6.4-3.2,9.6-9.6,9.6H3.1z"/>
		<path class="st0" d="M33.7,75.5v31.3h-7.2V75.5H33.7z"/>
		<path class="st0" d="M57.8,86.3v20.5h-7.2V86.3c0-2.4-1.2-3.6-3.6-3.6c-2.4,0-3.6,1.2-3.6,3.6v20.5h-7.2V86.3
			c0-7.2,3.6-10.8,10.8-10.8c4,0,6.4,1.2,7.2,3.6c0.8-2.4,3.2-3.6,7.2-3.6c7.2,0,10.8,3.6,10.8,10.8v20.5H65V86.3
			c0-2.4-1.2-3.6-3.6-3.6C59,82.7,57.8,83.9,57.8,86.3z"/>
		<path class="st0" d="M74.7,106.8V75.5h13.2c6.4,0,9.6,3.2,9.6,9.6c0,3.2-1.5,5.2-4.6,6c3.1,0.8,4.6,2.8,4.6,6
			c0,6.4-3.2,9.6-9.6,9.6H74.7z M87.9,87.5c1.6,0,2.4-0.8,2.4-2.4c0-1.6-0.8-2.4-2.4-2.4h-6v4.8H87.9z M87.9,99.6
			c1.6,0,2.4-0.8,2.4-2.4s-0.8-2.4-2.4-2.4h-6v4.8H87.9z"/>
		<path class="st0" d="M127.7,91.1c0,10.4-4.6,15.7-13.7,15.7c-9.3,0-14-5.2-14-15.7s4.7-15.7,14-15.7
			C123.1,75.5,127.7,80.7,127.7,91.1z M113.9,82.7c-4.5,0-6.7,2.8-6.7,8.4s2.2,8.4,6.7,8.4c4.3,0,6.5-2.8,6.5-8.4
			S118.3,82.7,113.9,82.7z"/>
		<path class="st0" d="M142.1,75.5c7.2,0,10.8,3.6,10.8,10.8c0,4.8-1.4,7.9-4.1,9.2l4.1,11.3H145l-2.9-9.6h-4.8v9.6h-7.2V75.5H142.1
			z M137.3,89.9h4.8c2.4,0,3.6-1.2,3.6-3.6s-1.2-3.6-3.6-3.6h-4.8V89.9z"/>
		<path class="st0" d="M178.3,87.5v19.3H171v-7.2h-8.4v7.2h-7.2V87.5c0-8,3.9-12,11.6-12C174.5,75.5,178.3,79.5,178.3,87.5z
			 M166.9,82.7c-2.9,0-4.3,1.6-4.3,4.8v4.8h8.4v-4.8C171,84.3,169.7,82.7,166.9,82.7z"/>
		<path class="st0" d="M184.3,97.2v-2.4c0-4.8,2.4-7.2,7.2-7.2c1.6,0,2.4-0.8,2.4-2.4c0-1.6-0.8-2.4-2.4-2.4h-10.8l0.7-7.2h10.1
			c6.4,0,9.6,3.2,9.6,9.6c0,5.9-2.4,9.2-7.2,9.6c-1.6,0-2.4,0.8-2.4,2.4H184.3z M191.5,99.6v7.2h-7.2v-7.2H191.5z"/>
	</g>
	<g>
		<defs>
			<path id="SVGID_1_" d="M89.3,2.8L89.3,2.8c-0.3,0.2-0.7,0.4-1,0.5c-11.9,7-14.7,23.1-6.4,34.1l18.7,25.1l18.7-25.1
				c8.2-11.1,5.4-27.1-6.4-34.1c-0.3-0.2-0.6-0.4-1-0.5l0,0C104.8-0.9,96.3-0.9,89.3,2.8z"/>
		</defs>
		<clipPath id="SVGID_00000131339803978163573090000010485091755161348522_">
			<use xlink:href="#SVGID_1_"  style="overflow:visible;"/>
		</clipPath>
		<g style="clip-path:url(#SVGID_00000131339803978163573090000010485091755161348522_);">
			
				<rect x="71.1" y="-1.3" transform="matrix(-1 -4.487667e-11 4.487667e-11 -1 192.937 6.6805)" class="st2" width="50.6" height="9.3"/>
			
				<rect x="71.2" y="53.4" transform="matrix(-1 -4.487667e-11 4.487667e-11 -1 193.134 116.0018)" class="st3" width="50.6" height="9.3"/>
			<polygon class="st4" points="105.2,30.7 129.8,30.7 129.8,12.6 96,12.6 			"/>
			<polygon class="st5" points="90.9,12.6 65.6,12.6 65.6,30.7 100.2,30.7 			"/>
			<polygon class="st4" points="114.5,48.9 130.6,48.9 130.6,30.7 105.3,30.7 			"/>
			<polygon class="st5" points="100.2,30.7 74.9,30.7 74.9,48.9 109.5,48.9 			"/>
		</g>
	</g>
</g>
</svg>
